<svg width="1200" height="630" xmlns="http://www.w3.org/2000/svg" viewBox="0 0 1200 630" role="img" aria-label="BestAgencyCallTracking — The Best Agency Call Tracking Software 2026">
  <defs>
    <linearGradient id="bg" x1="0" y1="0" x2="0" y2="1"><stop offset="0" stop-color="#F8FAFC"/><stop offset="1" stop-color="#FFFFFF"/></linearGradient>
    <linearGradient id="panel" x1="0" y1="0" x2="1" y2="1"><stop offset="0" stop-color="#334155"/><stop offset="1" stop-color="#1E293B"/></linearGradient>
  </defs>
  <rect width="1200" height="630" fill="url(#bg)"/>
  <rect x="0" y="0" width="1200" height="8" fill="#2563EB"/>
  <g transform="translate(96 122)">
    <rect x="0" y="-34" width="318" height="34" rx="6" fill="#1E293B"/>
    <text x="14" y="-11" font-family="'Inter Tight', Inter, sans-serif" font-size="17" fill="#FFFFFF" font-weight="700" letter-spacing="2">BEST AGENCY CALL TRACKING · 2026</text>
    <text x="0" y="78" font-family="'Inter Tight', Inter, sans-serif" font-size="72" font-weight="700" fill="#1E293B" letter-spacing="-2">The Best Agency</text>
    <text x="0" y="158" font-family="'Inter Tight', Inter, sans-serif" font-size="72" font-weight="700" fill="#1E293B" letter-spacing="-2">Call Tracking <tspan fill="#2563EB">Software</tspan></text>
    <text x="0" y="222" font-family="Inter, sans-serif" font-size="28" fill="#64748B" font-weight="500">Multi-client management, white-label and per-client cost, ranked</text>
    <text x="0" y="300" font-family="Inter, sans-serif" font-size="19" fill="#1D4ED8" font-weight="700">By Nathan Brooks · Updated May 2026</text>
  </g>
  <g transform="translate(812 200)">
    <rect x="0" y="0" width="300" height="232" rx="14" fill="url(#panel)"/>
    <rect x="0" y="0" width="300" height="38" rx="14" fill="#0F172A"/>
    <rect x="0" y="24" width="300" height="14" fill="#0F172A"/>
    <circle cx="22" cy="19" r="5" fill="#475569"/><circle cx="40" cy="19" r="5" fill="#334155"/><circle cx="58" cy="19" r="5" fill="#334155"/>
    <text x="280" y="24" text-anchor="end" font-family="Inter, sans-serif" font-size="12" fill="#93C5FD" font-weight="600">5 clients</text>
    <rect x="18" y="56" width="126" height="60" rx="8" fill="#1E293B"/>
    <text x="32" y="92" font-family="'Inter Tight', Inter, sans-serif" font-size="26" font-weight="700" fill="#FFFFFF">$0.50</text>
    <text x="32" y="108" font-family="Inter, sans-serif" font-size="11" fill="#94A3B8">per number / mo</text>
    <rect x="156" y="56" width="126" height="60" rx="8" fill="#1E293B"/>
    <text x="170" y="92" font-family="'Inter Tight', Inter, sans-serif" font-size="26" font-weight="700" fill="#60A5FA">∞</text>
    <text x="170" y="108" font-family="Inter, sans-serif" font-size="11" fill="#94A3B8">sub-accounts</text>
    <rect x="18" y="128" width="264" height="28" rx="6" fill="#0F172A"/>
    <text x="30" y="147" font-family="Inter, sans-serif" font-size="12" fill="#CBD5E1" font-weight="600">Client A</text>
    <text x="270" y="147" text-anchor="end" font-family="Inter, sans-serif" font-size="12" fill="#86EFAC" font-weight="700">$4.00/mo</text>
    <rect x="18" y="162" width="264" height="28" rx="6" fill="#0F172A"/>
    <text x="30" y="181" font-family="Inter, sans-serif" font-size="12" fill="#CBD5E1" font-weight="600">Client B</text>
    <text x="270" y="181" text-anchor="end" font-family="Inter, sans-serif" font-size="12" fill="#86EFAC" font-weight="700">$3.00/mo</text>
    <rect x="18" y="196" width="264" height="28" rx="6" fill="#0F172A"/>
    <text x="30" y="215" font-family="Inter, sans-serif" font-size="12" fill="#CBD5E1" font-weight="600">Client C</text>
    <text x="270" y="215" text-anchor="end" font-family="Inter, sans-serif" font-size="12" fill="#86EFAC" font-weight="700">$5.50/mo</text>
  </g>
</svg>
